<svg width="68" height="78" viewBox="0 0 68 78" fill="none" xmlns="http://www.w3.org/2000/svg">
<path d="M38.7209 70.2034C36.7151 72.2092 35.3197 72.8197 33.6627 72.8197C32.0058 72.8197 30.436 72.2965 28.4302 70.2034L6.88952 48.0523C4.88371 46.0465 4.36046 44.3023 4.36046 42.6453C4.36046 40.9883 4.88371 39.0697 6.88952 37.0639C8.11045 35.7558 11.9476 31.4825 11.9476 31.4825L9.41859 44.6511L13.1686 48.4011L16.0465 32.9651C17.4418 24.4186 18.75 16.0465 19.7965 7.5C19.9709 7.32558 19.9709 7.15116 19.9709 6.97674C21.3663 16.4825 23.1977 25.7267 25.2035 35.0581L29.9128 58.0814C30.436 60.3488 32.093 61.6569 33.6627 61.6569C35.0581 61.6569 36.7151 60.3488 37.2383 58.0814L42.122 35.0581C44.1279 25.7267 45.6976 16.4825 47.1802 6.97674C47.1802 7.15116 47.3546 7.32558 47.3546 7.5C48.4011 16.0465 49.7093 24.4186 51.279 32.9651L58.2558 71.25H62.7034L59.6511 54.8546L63.5755 50.9302C65.9302 48.3139 67.1511 45.5232 67.1511 42.5581C67.1511 39.4186 65.9302 36.8023 63.5755 34.186L53.8953 24.157L49.4476 0H44.9999L42.2965 12.9942L41.5988 12.4709C39.2441 9.85466 36.5406 8.54652 33.6627 8.54652C30.6104 8.54652 28.0814 9.85466 25.5523 12.4709L25.029 12.9942L22.1511 0H17.7035L13.2558 24.157L3.74999 34.186C1.22092 36.8023 0 39.4186 0 42.5581C0 45.5232 1.22092 48.3139 3.74999 50.9302L7.49997 54.8546L4.44765 71.25H9.15697L11.5116 58.9534L25.7267 73.6046C28.2558 76.2209 30.7848 77.3546 33.8372 77.3546C36.7151 77.3546 39.4186 76.2209 41.7732 73.6046L52.7616 62.2674L51.7151 57.0348L38.7209 70.2034ZM60.436 37.0639C62.093 38.8953 62.7906 40.5523 62.7906 42.6453C62.7906 44.4767 62.093 46.1337 60.2616 48.0523L58.6046 49.8837L55.029 31.1337C55.029 31.1337 59.1278 35.5814 60.436 37.0639ZM25.9011 17.7035C26.5988 16.9186 27.2965 16.2209 28.2558 15.436C30.436 13.6047 31.6569 12.9942 33.6627 12.9942C35.4941 12.9942 36.8895 13.5174 38.8953 15.436C39.7674 16.2209 40.5523 16.9186 41.25 17.7035L34.9709 47.7907C34.622 49.4476 33.75 55.029 33.75 55.029C33.75 55.029 32.7034 49.4476 32.3546 47.7907L25.9011 17.7035Z" fill="black"/>
</svg>
