<svg width="60" height="70" viewBox="0 0 60 70" fill="none" xmlns="http://www.w3.org/2000/svg">
<path d="M34.5974 62.7273C32.8052 64.5195 31.5584 65.0649 30.0779 65.0649C28.5974 65.0649 27.1948 64.5974 25.4026 62.7273L6.15584 42.9351C4.36363 41.1429 3.8961 39.5844 3.8961 38.1039C3.8961 36.6234 4.36363 34.9091 6.15584 33.1169C7.24675 31.9481 10.6753 28.1299 10.6753 28.1299L8.41557 39.8961L11.7662 43.2468L14.3377 29.4546C15.5844 21.8182 16.7532 14.3377 17.6883 6.7013C17.8441 6.54546 17.8442 6.38961 17.8442 6.23377C19.0909 14.7273 20.7273 22.987 22.5195 31.3247L26.7273 51.8961C27.1948 53.9221 28.6753 55.0909 30.0779 55.0909C31.3247 55.0909 32.8052 53.9221 33.2727 51.8961L37.6364 31.3247C39.4286 22.987 40.8311 14.7273 42.1558 6.23377C42.1558 6.38961 42.3117 6.54546 42.3117 6.7013C43.2467 14.3377 44.4156 21.8182 45.8182 29.4546L52.0519 63.6623H56.026L53.2987 49.013L56.8052 45.5065C58.9091 43.1688 60 40.6753 60 38.026C60 35.2208 58.9091 32.8831 56.8052 30.5455L48.1558 21.5844L44.1818 0H40.2078L37.7922 11.6104L37.1688 11.1429C35.0649 8.80521 32.6493 7.63638 30.0779 7.63638C27.3506 7.63638 25.0909 8.80521 22.8312 11.1429L22.3636 11.6104L19.7922 0H15.8182L11.8441 21.5844L3.35064 30.5455C1.0909 32.8831 0 35.2208 0 38.026C0 40.6753 1.0909 43.1688 3.35064 45.5065L6.70128 49.013L3.97401 63.6623H8.18182L10.2857 52.6753L22.987 65.7662C25.2468 68.1039 27.5065 69.1169 30.2338 69.1169C32.8052 69.1169 35.2208 68.1039 37.3247 65.7662L47.1429 55.6364L46.2078 50.961L34.5974 62.7273ZM54 33.1169C55.4805 34.7532 56.1039 36.2338 56.1039 38.1039C56.1039 39.7403 55.4805 41.2208 53.8441 42.9351L52.3636 44.5714L49.1688 27.8182C49.1688 27.8182 52.8312 31.7922 54 33.1169ZM23.1428 15.8182C23.7662 15.1169 24.3896 14.4935 25.2467 13.7922C27.1948 12.1559 28.2857 11.6104 30.0779 11.6104C31.7143 11.6104 32.961 12.0779 34.7532 13.7922C35.5324 14.4935 36.2338 15.1169 36.8571 15.8182L31.2467 42.7013C30.935 44.1818 30.1558 49.1688 30.1558 49.1688C30.1558 49.1688 29.2208 44.1818 28.9091 42.7013L23.1428 15.8182Z" fill="white"/>
</svg>
