<svg width="35" height="35" viewBox="0 0 35 35" fill="none" xmlns="http://www.w3.org/2000/svg">
<path d="M10.2154 11.666V8.74929C10.2154 4.72221 13.48 1.45762 17.5071 1.45762C21.5341 1.45762 24.7988 4.72221 24.7988 8.74929V11.666H29.1738C29.9792 11.666 30.6321 12.3189 30.6321 13.1243V30.6243C30.6321 31.4297 29.9792 32.0826 29.1738 32.0826H5.84041C5.03501 32.0826 4.38208 31.4297 4.38208 30.6243V13.1243C4.38208 12.3189 5.03501 11.666 5.84041 11.666H10.2154ZM10.2154 14.5826H7.29875V29.1659H27.7154V14.5826H24.7988V17.4993H21.8821V14.5826H13.1321V17.4993H10.2154V14.5826ZM13.1321 11.666H21.8821V8.74929C21.8821 6.33305 19.9233 4.37429 17.5071 4.37429C15.0908 4.37429 13.1321 6.33305 13.1321 8.74929V11.666Z" fill="white"/>
</svg>
