<svg width="35" height="35" viewBox="0 0 35 35" fill="none" xmlns="http://www.w3.org/2000/svg">
<path d="M26.2953 24.2328L32.5409 30.4784L30.4785 32.5408L24.2329 26.2952C21.9872 28.0919 19.1392 29.1667 16.0417 29.1667C8.79675 29.1667 2.91675 23.2867 2.91675 16.0417C2.91675 8.79667 8.79675 2.91667 16.0417 2.91667C23.2867 2.91667 29.1667 8.79667 29.1667 16.0417C29.1667 19.1392 28.092 21.9871 26.2953 24.2328ZM23.3694 23.1508C25.1527 21.313 26.2501 18.8061 26.2501 16.0417C26.2501 10.4016 21.6819 5.83333 16.0417 5.83333C10.4016 5.83333 5.83341 10.4016 5.83341 16.0417C5.83341 21.6818 10.4016 26.25 16.0417 26.25C18.8062 26.25 21.313 25.1526 23.1508 23.3694L23.3694 23.1508Z" fill="white"/>
</svg>
