<svg width="313" height="376" viewBox="0 0 313 376" fill="none" xmlns="http://www.w3.org/2000/svg">
<g clip-path="url(#clip0_196_19)">
<path d="M156.47 23.3C102.55 23.3 58.6801 67.17 58.6801 121.09C58.6801 175.01 102.55 218.88 156.47 218.88C210.39 218.88 254.26 175.01 254.26 121.09C254.26 67.17 210.39 23.3 156.47 23.3ZM156.47 205.88C109.72 205.88 71.6801 167.84 71.6801 121.09C71.6801 74.34 109.72 36.3 156.47 36.3C203.22 36.3 241.26 74.34 241.26 121.09C241.26 167.84 203.22 205.88 156.47 205.88Z" fill="white"/>
<path d="M311.01 331.68C310.11 329.51 309.21 327.35 308.32 325.18C308.83 323.71 308.83 322.06 308.18 320.51L253.8 191.82C274.77 163.11 281.46 131 274.64 96.2C270.94 77.33 262.76 60.39 250.67 45.41C234.89 25.86 214.99 12.19 190.82 5.16C182.67 2.79 174.14 1.68 165.79 0C159.42 0 153.06 0 146.69 0C141.52 0.84 136.29 1.42 131.18 2.56C105.38 8.35 83.45 20.85 65.85 40.68C45.35 63.78 35.19 90.94 35.26 121.63C35.31 146.4 42.6 169.2 57.03 189.52C58.63 191.78 58.86 193.61 57.78 196.17C49.96 214.69 42.28 233.27 34.56 251.84C23.53 278.4 12.51 304.96 1.48 331.52C0.240004 334.5 -1.11 337.47 1.48 340.4C4.17 343.44 7.43 342.48 10.65 341.53C12.64 340.94 14.61 340.31 16.6 339.73C29.7 335.95 42.8 332.18 56.02 328.38C56.73 329.61 57.35 330.64 57.93 331.69C65.19 344.82 72.46 357.95 79.7 371.1C81.08 373.6 82.76 375.51 85.91 375.41C89.25 375.31 90.85 373.15 91.94 370.37C92.03 370.14 92.14 369.92 92.23 369.7C99.45 352.28 106.67 334.87 113.89 317.45L146.19 241C151.51 241.39 156.9 241.44 162.36 241.14C165.86 240.95 167.41 242.1 168.71 245.27C185.78 286.74 203 328.14 220.16 369.57C221.37 372.49 222.66 375.21 226.39 375.41C230.13 375.62 231.7 373.04 233.22 370.27C240.27 357.44 247.36 344.62 254.43 331.81C255.06 330.66 255.74 329.54 256.41 328.38C257.98 328.82 259.27 329.17 260.55 329.54C274.85 333.67 289.13 337.82 303.44 341.92C308.15 343.27 312.04 341.34 312.36 337.24C312.52 335.43 311.74 333.44 311.01 331.68ZM84.32 354.08C83.68 353.01 83.17 352.15 82.68 351.28C76.96 340.92 71.25 330.55 65.52 320.2C62.74 315.18 60.87 314.38 55.4 315.94C43.79 319.26 32.19 322.62 20.59 325.95C19.41 326.29 18.21 326.58 16.56 327.02C33.8 285.49 50.78 244.59 67.75 203.69C68.21 203.45 68.68 203.21 69.14 202.97C70.99 205.24 72.49 207.97 74.76 209.7C82.43 215.52 89.96 221.69 98.28 226.45C109.28 232.73 120.83 236.95 132.83 239.25L84.32 354.08ZM156.11 229.25C94.72 229.14 47.73 179.95 47.47 121.05C47.2 61.08 95.95 12.33 156.17 12.17C215.98 12.01 265.02 60.74 264.99 120.56C264.95 180.41 217.14 229.36 156.11 229.25ZM291.89 325.95C280.28 322.62 268.69 319.26 257.08 315.94C251.59 314.37 249.73 315.16 246.95 320.18C243.28 326.8 239.64 333.43 235.98 340.05C233.29 344.92 230.58 349.78 227.47 355.38C211.24 316.28 195.32 277.9 179.36 239.43C180.81 238.99 181.72 238.65 182.67 238.44C207.31 232.84 227.97 221.05 244.48 203.15L251.26 219.2C251.49 219.94 251.76 220.66 252.06 221.37C262.43 246.36 272.82 271.33 283.19 296.32C287.37 306.39 291.52 316.47 295.86 326.99C294.19 326.56 293.03 326.28 291.89 325.95Z" fill="white"/>
<path d="M219.76 93.89C207.84 91.9 195.93 89.89 184 87.99C181.48 87.59 180.01 86.48 178.82 84.13C173.72 74 168.35 64.01 163.13 53.94C161.58 50.95 160.14 47.8 156.14 47.85C152.35 47.9 150.92 50.88 149.43 53.78C144.17 63.96 138.74 74.06 133.58 84.29C132.45 86.53 131 87.55 128.65 87.94C116.97 89.85 105.31 91.9 93.61 93.73C90.48 94.22 87.88 95.14 86.79 98.35C85.71 101.53 87.6 103.66 89.63 105.72C97.96 114.16 106.34 122.56 114.5 131.16C115.71 132.44 116.61 134.81 116.39 136.52C114.87 148.24 113.12 159.93 111.2 171.59C110.69 174.72 110.61 177.47 113.3 179.53C116.05 181.64 118.77 180.61 121.52 179.23C131.87 174.02 142.32 169 152.6 163.65C155.32 162.23 157.37 162.4 159.98 163.75C170.39 169.11 180.91 174.26 191.4 179.47C194.03 180.78 196.74 181.5 199.29 179.42C201.63 177.52 201.82 175.02 201.35 172.13C199.43 160.22 197.61 148.29 196.03 136.34C195.82 134.73 196.66 132.49 197.8 131.29C206.15 122.53 214.74 113.99 223.15 105.29C224.52 103.88 225.39 101.99 225.97 101.1C225.91 96.81 223.62 94.54 219.76 93.89ZM187.32 124.38C183.67 127.82 182.75 131.5 183.55 136.2C185.08 145.19 186.35 154.23 187.81 163.75C186.57 163.27 185.6 162.99 184.7 162.55C176.82 158.66 168.9 154.84 161.1 150.79C157.75 149.05 154.78 149.04 151.43 150.77C142.76 155.23 133.97 159.47 124.69 164.06C126.07 154.78 127.15 146.01 128.74 137.32C129.72 131.97 128.97 127.79 124.7 123.87C118.07 117.78 112 111.08 105.23 104.16C113 102.85 120.16 101.63 127.33 100.42C127.93 100.32 128.55 100.28 129.14 100.16C141.04 97.75 138.89 100.29 145.27 88.08C148.72 81.49 152.17 74.9 155.64 68.32C155.73 68.15 156.03 68.08 156.56 67.78C158.88 72.17 161.19 76.53 163.49 80.9C164.06 81.98 164.59 83.08 165.17 84.15C174.65 101.59 169.02 97.28 189.46 101.13C195.18 102.21 200.93 103.09 207.26 104.16C200.34 111.22 194.04 118.03 187.32 124.38Z" fill="white"/>
</g>
<defs>
<clipPath id="clip0_196_19">
<rect width="312.39" height="375.43" fill="white"/>
</clipPath>
</defs>
</svg>
