<svg width="370" height="184" viewBox="0 0 370 184" fill="none" xmlns="http://www.w3.org/2000/svg">
<g clip-path="url(#clip0_197_24)">
<path d="M0.07 81.58C0.7 78.47 1.26 75.33 2.02 72.25C10.17 39.11 30.18 16.32 62.4 5.12998C88.75 -4.02002 114.28 -0.730021 138.35 13.28C148.58 19.23 157.11 27 164.32 36.46C166.68 39.56 165.88 44.02 162.6 46.14C162.14 46.43 161.69 46.73 161.23 47.03C158.31 48.92 154.44 48.26 152.3 45.52C152.22 45.42 152.14 45.32 152.06 45.22C138.46 27.87 120.74 18.09 98.78 15.69C63.9 11.87 30.27 33.7 18.98 67.03C5.35 107.24 26.46 151.57 68.15 164.68C102.92 175.61 134.42 162.39 155.53 134.86C167.37 119.41 173.84 101.51 179.89 83.33C186.76 62.65 196.8 43.76 212.56 28.36C228.72 12.57 247.75 2.75998 270.54 0.63998C315.96 -3.59002 357.66 27.54 367.82 71.91C377.01 112.02 356.52 155.57 319.48 173.5C291.25 187.17 263.14 186.49 235.24 172.5C224.89 167.31 213.18 157.11 205.53 146.99C203.2 143.91 204.03 139.48 207.28 137.38C207.75 137.08 208.22 136.77 208.7 136.47C211.59 134.6 215.44 135.26 217.55 137.98C217.56 138 217.57 138.01 217.59 138.03C231.28 155.67 249.15 166.02 271.45 167.78C303.06 170.27 327.48 157.56 344.13 130.83C364.84 97.6 355.13 52.19 323.09 29.66C290.39 6.64998 248 11.36 220.99 40.78C207.44 55.54 198.98 73.01 192.84 91.82C188.28 105.77 183.14 119.48 175.41 132.05C160.53 156.24 140.47 173.94 112.3 180.73C84.98 187.32 59.74 181.8 37.1 165.42C18.2 151.73 6.69 132.99 1.69 110.23C1.06 107.37 0.56 104.49 0 101.61C0.02 94.87 0.05 88.32 0.07 81.58Z" fill="white"/>
</g>
<defs>
<clipPath id="clip0_197_24">
<rect width="369.99" height="183.44" fill="white"/>
</clipPath>
</defs>
</svg>
