<svg width="358" height="317" viewBox="0 0 358 317" fill="none" xmlns="http://www.w3.org/2000/svg">
<g clip-path="url(#clip0_197_28)">
<path d="M273.767 0C279.967 0.00986433 281.418 1.43033 281.428 7.58567C281.448 23.9605 281.438 40.3254 281.438 56.7002C281.438 58.1305 281.438 59.5608 281.438 61.3758C283.274 61.3758 284.607 61.3758 285.93 61.3758C307.482 61.3758 329.044 61.3758 350.596 61.3758C356.746 61.3758 357.99 62.599 357.99 68.6656C358 148.922 358 229.188 357.99 309.444C357.99 315.55 356.509 317 350.359 317C236.172 317 121.986 317 7.78948 317C1.36242 317 0 315.649 0 309.247C0 229.109 0 148.971 0 68.8333C0 62.5004 1.15509 61.3758 7.59202 61.3758C29.0254 61.366 50.4588 61.3758 71.8922 61.3758C73.225 61.3758 74.5677 61.3758 76.3053 61.3758C76.3941 59.7088 76.5422 58.2883 76.5422 56.8777C76.562 40.5029 76.5422 24.138 76.562 7.76323C76.5718 1.36128 77.9441 0.0197287 84.4107 0.00986433L273.767 0ZM270.657 10.6436C209.329 10.6436 148.405 10.6436 87.4712 10.6436C87.4712 109.376 87.4712 207.881 87.4712 306.376C105.834 306.376 123.862 306.376 142.067 306.376C142.067 304.749 142.067 303.397 142.067 302.056C142.067 278.795 142.067 255.526 142.067 232.265C142.067 226.376 143.636 224.778 149.432 224.778C169.137 224.769 188.843 224.769 208.559 224.778C214.364 224.778 215.943 226.376 215.943 232.256C215.943 255.644 215.943 279.032 215.943 302.421C215.943 303.732 215.943 305.044 215.943 306.425C234.415 306.425 252.442 306.425 270.667 306.425C270.657 207.733 270.657 109.307 270.657 10.6436ZM76.098 306.524C76.098 228.103 76.098 150.046 76.098 71.98C54.1117 71.98 32.392 71.98 10.6525 71.98C10.6525 150.283 10.6525 228.33 10.6525 306.524C32.5499 306.524 54.1808 306.524 76.098 306.524ZM281.774 306.396C303.908 306.396 325.638 306.396 347.328 306.396C347.328 228.073 347.328 150.017 347.328 71.9899C325.332 71.9899 303.612 71.9899 281.774 71.9899C281.774 150.224 281.774 228.191 281.774 306.396ZM205.36 306.435C205.36 282.455 205.36 258.899 205.36 235.383C187.589 235.383 170.075 235.383 152.64 235.383C152.64 259.225 152.64 282.781 152.64 306.435C170.322 306.435 187.747 306.435 205.36 306.435Z" fill="white"/>
<path d="M116.22 183.033C116.22 179.837 116.191 176.641 116.23 173.445C116.319 166.766 120.169 162.416 126.784 162.16C133.902 161.893 141.05 161.893 148.178 162.17C154.526 162.416 158.356 166.401 158.564 172.813C158.791 179.807 158.801 186.83 158.564 193.824C158.337 200.69 154.141 204.517 147.151 204.596C140.635 204.675 134.119 204.685 127.603 204.596C120.416 204.497 116.289 200.236 116.23 192.986C116.2 189.671 116.22 186.357 116.22 183.033ZM126.744 172.803C126.744 180.004 126.744 186.84 126.744 193.933C133.843 193.933 140.783 193.933 147.882 193.933C147.882 186.821 147.882 179.906 147.882 172.803C140.793 172.803 133.951 172.803 126.744 172.803Z" fill="white"/>
<path d="M241.77 183.595C241.77 186.909 241.819 190.234 241.76 193.548C241.632 199.97 237.653 204.349 231.305 204.547C224.177 204.774 217.039 204.754 209.911 204.557C203.8 204.389 199.732 200.483 199.496 194.367C199.219 187.126 199.219 179.866 199.456 172.626C199.663 166.293 203.632 162.367 210.01 162.15C217.009 161.913 224.029 161.903 231.029 162.15C237.821 162.387 241.691 166.727 241.77 173.642C241.809 176.956 241.78 180.28 241.77 183.595ZM231.246 172.922C223.98 172.922 217.059 172.922 210.069 172.922C210.069 180.054 210.069 186.89 210.069 193.933C217.197 193.933 224.137 193.933 231.246 193.933C231.246 186.86 231.246 180.024 231.246 172.922Z" fill="white"/>
<path d="M116.23 56.562C116.23 53.1194 116.141 49.6767 116.25 46.2439C116.437 40.1379 120.673 35.8174 126.754 35.7088C133.882 35.5806 141.02 35.5905 148.148 35.7088C153.904 35.8075 158.159 39.4968 158.396 45.1885C158.722 53.0306 158.692 60.9122 158.366 68.7543C158.149 73.943 154.565 77.5533 149.392 77.7703C141.543 78.1156 133.665 78.1452 125.816 77.8098C120.09 77.5731 116.447 73.3511 116.26 67.6101C116.131 63.9406 116.23 60.2513 116.23 56.562ZM147.793 67.3733C147.793 60.0343 147.793 53.1095 147.793 46.2144C140.625 46.2144 133.784 46.2144 126.814 46.2144C126.814 53.366 126.814 60.2908 126.814 67.3733C133.912 67.3733 140.764 67.3733 147.793 67.3733Z" fill="white"/>
<path d="M220.87 35.6793C224.315 35.6793 227.761 35.6004 231.196 35.699C237.308 35.8766 241.612 40.0886 241.731 46.2045C241.869 53.3266 241.869 60.4585 241.731 67.5805C241.622 73.3314 237.93 77.5632 232.223 77.8098C224.374 78.1452 216.496 78.1156 208.647 77.7802C203.454 77.5534 199.841 73.943 199.624 68.7938C199.298 60.9517 199.268 53.0701 199.584 45.228C199.811 39.5461 204.067 35.8766 209.803 35.699C213.495 35.5905 217.187 35.6793 220.87 35.6793ZM231.325 46.244C224.049 46.244 217.108 46.244 210.158 46.244C210.158 53.4252 210.158 60.3598 210.158 67.1958C217.375 67.1958 224.305 67.1958 231.325 67.1958C231.325 60.1231 231.325 53.3759 231.325 46.244Z" fill="white"/>
<path d="M137.496 141.228C133.932 141.228 130.368 141.277 126.804 141.218C120.87 141.119 116.437 137.035 116.289 131.156C116.102 123.787 116.102 116.409 116.289 109.05C116.437 103.289 120.683 99.2154 126.498 99.1069C133.872 98.9787 141.247 98.9787 148.622 99.1266C154.082 99.2351 158.119 102.757 158.356 108.202C158.702 116.162 158.702 124.162 158.346 132.123C158.1 137.617 153.795 141.119 148.197 141.218C144.633 141.287 141.06 141.228 137.496 141.228ZM126.744 130.712C133.941 130.712 140.862 130.712 147.901 130.712C147.901 123.58 147.901 116.665 147.901 109.632C140.754 109.632 133.833 109.632 126.744 109.632C126.744 116.675 126.744 123.501 126.744 130.712Z" fill="white"/>
<path d="M220.366 141.228C216.802 141.228 213.238 141.287 209.674 141.208C204.116 141.08 199.88 137.528 199.634 131.985C199.278 124.143 199.278 116.261 199.604 108.419C199.831 102.786 203.879 99.2055 209.516 99.1069C216.891 98.9786 224.266 98.9688 231.641 99.1069C237.406 99.2154 241.592 103.368 241.73 109.168C241.898 116.409 241.898 123.669 241.74 130.909C241.612 137.015 237.229 141.119 231.068 141.208C227.494 141.277 223.93 141.228 220.366 141.228ZM210.03 130.643C217.385 130.643 224.305 130.643 231.137 130.643C231.137 123.442 231.137 116.527 231.137 109.711C223.92 109.711 216.99 109.711 210.03 109.711C210.03 116.823 210.03 123.649 210.03 130.643Z" fill="white"/>
<path d="M43.548 170.821C46.0063 170.811 48.4744 170.771 50.9327 170.821C57.2413 170.949 61.3779 174.737 61.6544 181.07C61.8913 186.475 61.8814 191.901 61.6346 197.306C61.3779 203.067 57.9916 206.825 52.2359 207.259C46.4901 207.693 40.6553 207.713 34.9095 207.299C28.7095 206.855 25.3133 202.663 25.2738 196.418C25.2442 191.378 25.2245 186.327 25.2837 181.287C25.3528 175.348 29.5092 171.077 35.4327 170.85C38.128 170.742 40.8429 170.83 43.548 170.821ZM35.7882 181.247C35.7882 186.603 35.7882 191.575 35.7882 196.705C40.9515 196.705 45.9076 196.705 50.992 196.705C50.992 191.437 50.992 186.386 50.992 181.247C45.8187 181.247 40.9515 181.247 35.7882 181.247Z" fill="white"/>
<path d="M25.2738 253.217C25.2738 250.514 25.2145 247.802 25.2837 245.099C25.4317 239.585 29.5782 235.264 35.0773 235.116C40.6158 234.968 46.1543 234.988 51.6928 235.106C57.0537 235.225 61.2199 238.884 61.4963 244.201C61.8221 250.327 61.7826 256.502 61.4766 262.628C61.2396 267.254 57.9027 270.924 53.3021 271.229C46.8257 271.664 40.2703 271.703 33.7938 271.249C28.6403 270.884 25.3824 266.603 25.2639 261.345C25.2244 258.633 25.2639 255.92 25.2738 253.217ZM35.6894 260.882C40.991 260.882 45.947 260.882 51.0906 260.882C51.0906 255.693 51.0906 250.741 51.0906 245.651C45.868 245.651 40.8231 245.651 35.6894 245.651C35.6894 250.781 35.6894 255.654 35.6894 260.882Z" fill="white"/>
<path d="M25.264 124.823C25.264 122.239 25.2245 119.654 25.2739 117.07C25.3726 111.132 29.4796 106.801 35.4328 106.624C40.8429 106.466 46.2729 106.456 51.683 106.633C57.1919 106.811 61.2595 110.628 61.5655 116.133C61.8716 121.775 61.8814 127.457 61.6346 133.099C61.3779 139.048 57.5079 142.905 51.5053 143.21C46.2235 143.477 40.912 143.467 35.6302 143.23C29.1637 142.934 25.3331 138.673 25.2739 132.202C25.2442 129.746 25.264 127.289 25.264 124.823ZM50.992 132.636C50.992 127.319 50.992 122.249 50.992 117.178C45.7299 117.178 40.7541 117.178 35.7684 117.178C35.7684 122.446 35.7684 127.447 35.7684 132.636C40.9417 132.636 45.9174 132.636 50.992 132.636Z" fill="white"/>
<path d="M332.726 189.257C332.726 191.96 332.785 194.672 332.706 197.375C332.558 202.278 329.488 206.549 324.67 206.934C317.967 207.467 311.164 207.447 304.451 206.954C299.85 206.618 296.691 202.85 296.474 198.174C296.198 192.167 296.158 186.12 296.464 180.113C296.731 174.806 300.838 171.038 306.169 170.87C311.707 170.692 317.256 170.692 322.784 170.87C328.501 171.047 332.598 175.398 332.716 181.129C332.776 183.841 332.726 186.544 332.726 189.257ZM306.87 196.655C312.211 196.655 317.167 196.655 322.241 196.655C322.241 191.427 322.241 186.456 322.241 181.415C316.999 181.415 311.944 181.415 306.87 181.415C306.87 186.584 306.87 191.467 306.87 196.655Z" fill="white"/>
<path d="M332.726 253.188C332.726 256.019 332.795 258.85 332.706 261.681C332.548 266.712 329.251 270.894 324.226 271.239C317.749 271.693 311.194 271.654 304.718 271.229C300.137 270.934 296.731 267.234 296.514 262.657C296.217 256.403 296.188 250.11 296.533 243.866C296.8 238.963 300.936 235.284 305.892 235.136C311.549 234.958 317.216 234.978 322.883 235.116C328.402 235.254 332.548 239.555 332.716 245.069C332.795 247.772 332.726 250.475 332.726 253.188ZM306.919 260.833C312.28 260.833 317.226 260.833 322.212 260.833C322.212 255.595 322.212 250.643 322.212 245.572C317.039 245.572 312.073 245.572 306.919 245.572C306.919 250.712 306.919 255.664 306.919 260.833Z" fill="white"/>
<path d="M332.736 124.833C332.736 127.299 332.756 129.755 332.736 132.221C332.677 138.564 329.004 142.835 322.735 143.191C317.216 143.506 311.638 143.506 306.12 143.171C300.324 142.816 296.622 138.9 296.365 133.099C296.129 127.694 296.119 122.268 296.346 116.863C296.612 110.569 300.788 106.702 307.067 106.604C311.994 106.525 316.92 106.535 321.847 106.604C328.491 106.693 332.667 110.885 332.736 117.455C332.756 119.911 332.736 122.377 332.736 124.833ZM322.232 117.109C316.891 117.109 312.004 117.109 306.998 117.109C306.998 122.387 306.998 127.457 306.998 132.586C312.25 132.586 317.226 132.586 322.232 132.586C322.232 127.299 322.232 122.298 322.232 117.109Z" fill="white"/>
</g>
<defs>
<clipPath id="clip0_197_28">
<rect width="358" height="317" fill="white"/>
</clipPath>
</defs>
</svg>
