<svg width="371" height="282" viewBox="0 0 371 282" fill="none" xmlns="http://www.w3.org/2000/svg">
<g clip-path="url(#clip0_197_56)">
<path d="M27.88 220.73C29.87 221.56 32.23 221.76 34.42 221.77C84.7 221.82 134.97 221.81 185.25 221.81C232.41 221.81 279.57 221.81 326.72 221.81C330.71 221.81 334.71 221.92 338.7 221.78C344.22 221.59 347.09 218.51 347.1 212.98C347.14 199.05 345.24 185.34 340.61 172.23C319.88 113.52 276.98 80.72 217.37 67.91C210.22 66.38 202.8 66.14 195.53 65.17C194.66 65.05 193.2 64.01 193.25 63.54C193.36 62.6 194.24 61.67 194.98 60.9C195.37 60.49 196.11 60.44 196.69 60.21C212.2 54.1 220.25 36.98 215 21.29C209.72 5.54 193.13 -3.27 177.03 1.13C164.11 4.66 154.95 16.12 154.1 29.82C153.3 42.67 161.67 55.35 174.15 60.26C175.74 60.89 178.48 60.95 177.45 63.58C177.05 64.6 174.74 65.18 173.23 65.4C168.43 66.09 163.56 66.29 158.77 67.07C113.93 74.32 77.2 95.3 50.27 132.2C32.75 156.21 23.84 183.29 23.62 213.13C23.59 216.57 24.68 219.4 27.88 220.73ZM172.23 44.18C168.72 40.64 166.79 35.99 166.81 31.08C166.85 21.04 175.34 12.55 185.37 12.55C195.53 12.6 203.99 21.15 203.95 31.23C203.91 41.41 195.57 49.69 185.36 49.69H185.3C180.38 49.67 175.74 47.71 172.23 44.18ZM37.47 196.79C38.6 190.61 39.76 184.23 41.64 178.14C54.09 137.79 80.35 108.76 119.67 91.84C142.53 82.01 165.26 77.02 187.22 77.02C220.03 77.02 251.7 88.08 281.34 109.89C308.69 130.01 325.91 157.57 332.53 191.8C332.94 193.93 334.04 208.96 334.04 208.96C311.19 208.96 288.84 208.96 265.99 208.96C221.28 208.96 176.58 208.96 131.87 208.96C100.32 208.96 68.77 208.97 37.22 208.96C36.52 208.96 36.73 200.86 37.47 196.79Z" fill="white"/>
<path d="M367.4 266.18C360.83 257.87 354.16 249.61 347.98 241.01C344.69 236.43 340.8 234.86 335.32 234.87C235.39 234.98 135.46 234.95 35.52 234.95C32.27 234.95 27.83 235.08 25.58 237.87C17.36 248.05 9.3 258.37 1.48 268.86C-1.83 273.31 0.730003 279.24 6.16 280.58C7.82 280.99 9.61 280.99 11.35 280.99C69.36 281.01 127.38 281.01 185.39 281.01C204.23 281.01 223.07 281.01 241.91 281.01C281.33 281.01 320.76 281 360.18 281.03C364.26 281.03 368.02 280.5 369.97 276.36C371.86 272.35 369.83 269.26 367.4 266.18ZM18.06 268.08L24.12 260.2C26.93 256.54 29.58 253.08 32.3 249.64C33.27 248.41 34.79 247.91 35.9 247.71C36.38 247.62 106.09 247.62 106.09 247.62C178.22 247.62 255.05 247.62 331.68 247.57C334.51 247.57 337.73 248.07 340.24 251.77C342.06 254.45 344.11 257.03 346.28 259.76C347.24 260.97 348.23 262.21 349.23 263.51L352.77 268.08H18.06Z" fill="white"/>
</g>
<defs>
<clipPath id="clip0_197_56">
<rect width="370.71" height="281.02" fill="white"/>
</clipPath>
</defs>
</svg>
