<svg width="44" height="44" viewBox="0 0 44 44" fill="none" xmlns="http://www.w3.org/2000/svg">
<mask id="mask0_137_97" style="mask-type:alpha" maskUnits="userSpaceOnUse" x="0" y="0" width="44" height="44">
<rect x="0.0166016" width="43.1092" height="43.1092" fill="#D9D9D9"/>
</mask>
<g mask="url(#mask0_137_97)">
</g>
<g clip-path="url(#clip0_137_97)">
<path d="M38.336 22.1324C38.336 13.1386 31.044 5.84668 22.0502 5.84668C13.0565 5.84668 5.76453 13.1386 5.76453 22.1324C5.76453 30.2617 11.7197 36.9985 19.5056 38.22V26.8403H15.3704V22.131H19.5056V18.5455C19.5056 14.4645 21.9376 12.209 25.6575 12.209C27.4381 12.209 29.3028 12.5279 29.3028 12.5279V16.5355H27.2481C25.2246 16.5355 24.5935 17.7909 24.5935 19.0788V22.1324H29.1101L28.3881 26.8417H24.5935V38.2213C32.3808 36.9985 38.336 30.2603 38.336 22.1324Z" fill="white"/>
</g>
<defs>
<clipPath id="clip0_137_97">
<rect width="32.5714" height="32.5714" fill="white" transform="translate(5.76453 5.74805)"/>
</clipPath>
</defs>
</svg>
