<svg width="44" height="44" viewBox="0 0 44 44" fill="none" xmlns="http://www.w3.org/2000/svg">
<mask id="mask0_137_114" style="mask-type:alpha" maskUnits="userSpaceOnUse" x="0" y="0" width="44" height="44">
<rect x="0.2771" width="43.1092" height="43.1092" fill="#D9D9D9"/>
</mask>
<g mask="url(#mask0_137_114)">
</g>
<g clip-path="url(#clip0_137_114)">
<path d="M29.2419 21.6626C28.8088 21.5298 28.51 21.4381 28.7376 20.8596C29.2292 19.5998 29.2814 18.5139 28.7487 17.7378C27.7481 16.2836 25.012 16.361 21.876 17.6983C21.876 17.6951 20.8912 18.1361 21.1425 17.3394C21.6262 15.7635 21.5519 14.4421 20.8011 13.6802C19.1003 11.9446 14.578 13.745 10.6974 17.6935C7.79058 20.6509 6.104 23.7838 6.104 26.4947C6.104 31.6809 12.6353 35.1489 19.026 35.1489C27.402 35.1489 32.9754 29.8789 32.9754 25.9462C32.9754 23.5673 31.0091 22.219 29.2419 21.6626ZM19.0434 32.8237C13.9457 33.3295 9.54197 31.0107 9.21161 27.647C8.88125 24.2818 12.746 21.1425 17.8452 20.632C22.9445 20.1262 27.3467 22.4434 27.677 25.8087C28.0074 29.1771 24.1426 32.3179 19.0434 32.8237ZM37.5594 17.4406C37.559 16.1956 37.3133 14.9628 36.8365 13.8127C36.3596 12.6626 35.6609 11.6176 34.7803 10.7375C33.8996 9.85745 32.8542 9.15944 31.7038 8.68337C30.5533 8.20729 29.3204 7.96248 28.0753 7.96289C27.7823 7.96289 27.5013 8.0793 27.2941 8.28651C27.0869 8.49371 26.9705 8.77475 26.9705 9.06778C26.9705 9.36082 27.0869 9.64185 27.2941 9.84906C27.5013 10.0563 27.7823 10.1727 28.0753 10.1727C30.0043 10.1731 31.8542 10.9397 33.218 12.3038C34.5818 13.668 35.348 15.5179 35.348 17.4469C35.3481 17.5921 35.3768 17.7359 35.4325 17.87C35.4881 18.0041 35.5697 18.1259 35.6724 18.2285C35.7752 18.3311 35.8971 18.4125 36.0313 18.468C36.1655 18.5234 36.3093 18.5519 36.4545 18.5518C36.5997 18.5517 36.7435 18.523 36.8776 18.4673C37.0117 18.4117 37.1335 18.3302 37.2361 18.2274C37.3387 18.1247 37.4201 18.0027 37.4755 17.8685C37.531 17.7343 37.5595 17.5905 37.5594 17.4453V17.4406ZM33.1635 17.2794C32.9134 16.0683 32.3142 14.957 31.4397 14.0825C30.5653 13.2081 29.454 12.6088 28.2429 12.3587C28.099 12.3252 27.9498 12.3209 27.8041 12.3459C27.6585 12.371 27.5193 12.425 27.3949 12.5048C27.2705 12.5845 27.1633 12.6883 27.0796 12.8102C26.996 12.932 26.9376 13.0694 26.9079 13.2142C26.8783 13.359 26.8779 13.5082 26.9068 13.6532C26.9358 13.7981 26.9935 13.9357 27.0765 14.058C27.1596 14.1803 27.2663 14.2847 27.3903 14.365C27.5143 14.4454 27.6532 14.5 27.7987 14.5258C28.5861 14.688 29.3087 15.0773 29.8772 15.6456C30.4458 16.2139 30.8354 16.9363 30.998 17.7235C31.0574 18.0107 31.2281 18.2625 31.4729 18.424C31.7176 18.5855 32.0163 18.6434 32.3036 18.585C32.5905 18.5253 32.842 18.3544 33.0031 18.1097C33.1642 17.865 33.2219 17.5665 33.1635 17.2794ZM16.429 23.9293C14.3741 24.3434 12.9878 26.0663 13.3324 27.7766C13.677 29.4901 15.6197 30.5428 17.6745 30.1287C19.7278 29.7145 21.1141 27.9916 20.7711 26.2813C20.4265 24.571 18.4807 23.5151 16.429 23.9293Z" fill="white"/>
</g>
<defs>
<clipPath id="clip0_137_114">
<rect width="31.6134" height="31.6134" fill="white" transform="translate(6.02502 5.74805)"/>
</clipPath>
</defs>
</svg>
