<svg width="44" height="44" viewBox="0 0 44 44" fill="none" xmlns="http://www.w3.org/2000/svg">
<mask id="mask0_137_105" style="mask-type:alpha" maskUnits="userSpaceOnUse" x="0" y="0" width="44" height="44">
<rect x="0.646851" width="43.1092" height="43.1092" fill="#D9D9D9"/>
</mask>
<g mask="url(#mask0_137_105)">
</g>
<path d="M33.4426 6.79102C34.3047 6.79102 35.1315 7.13348 35.7411 7.74307C36.3507 8.35265 36.6931 9.17943 36.6931 10.0415V32.795C36.6931 33.6571 36.3507 34.4839 35.7411 35.0935C35.1315 35.7031 34.3047 36.0455 33.4426 36.0455H10.6891C9.82701 36.0455 9.00024 35.7031 8.39065 35.0935C7.78106 34.4839 7.4386 33.6571 7.4386 32.795V10.0415C7.4386 9.17943 7.78106 8.35265 8.39065 7.74307C9.00024 7.13348 9.82701 6.79102 10.6891 6.79102H33.4426ZM32.63 31.9824V23.3686C32.63 21.9634 32.0718 20.6157 31.0781 19.6221C30.0845 18.6285 28.7369 18.0703 27.3317 18.0703C25.9502 18.0703 24.3412 18.9154 23.5611 20.1831V18.3791H19.0266V31.9824H23.5611V23.9699C23.5611 22.7185 24.5687 21.6946 25.8202 21.6946C26.4236 21.6946 27.0024 21.9343 27.4291 22.361C27.8558 22.7877 28.0955 23.3665 28.0955 23.9699V31.9824H32.63ZM13.7446 15.8274C14.4687 15.8274 15.1632 15.5397 15.6753 15.0277C16.1873 14.5156 16.475 13.8211 16.475 13.097C16.475 11.5855 15.2561 10.3503 13.7446 10.3503C13.0161 10.3503 12.3175 10.6397 11.8024 11.1548C11.2873 11.6699 10.9979 12.3685 10.9979 13.097C10.9979 14.6085 12.2331 15.8274 13.7446 15.8274ZM16.0037 31.9824V18.3791H11.5017V31.9824H16.0037Z" fill="white"/>
</svg>
