<svg width="44" height="44" viewBox="0 0 44 44" fill="none" xmlns="http://www.w3.org/2000/svg">
<mask id="mask0_137_101" style="mask-type:alpha" maskUnits="userSpaceOnUse" x="0" y="0" width="44" height="44">
<rect x="0.831787" width="43.1092" height="43.1092" fill="#D9D9D9"/>
</mask>
<g mask="url(#mask0_137_101)">
</g>
<path d="M38.7312 12.933C37.5633 13.4639 36.3043 13.8128 34.9999 13.9796C36.3347 13.1757 37.3661 11.9016 37.8515 10.3696C36.5925 11.128 35.1971 11.6589 33.7258 11.9623C32.5275 10.6578 30.8438 9.89941 28.9327 9.89941C25.3682 9.89941 22.4559 12.8117 22.4559 16.4065C22.4559 16.9222 22.5166 17.4228 22.6227 17.893C17.2229 17.62 12.4146 15.0262 9.21417 11.0977C8.65295 12.0533 8.33442 13.1757 8.33442 14.3588C8.33442 16.6189 9.47203 18.6211 11.2315 19.7587C10.1546 19.7587 9.1535 19.4553 8.27375 19.0003V19.0458C8.27375 22.2007 10.5186 24.84 13.4916 25.4315C12.5371 25.6927 11.535 25.7291 10.5641 25.5377C10.9761 26.8307 11.7829 27.9622 12.8712 28.7729C13.9595 29.5837 15.2745 30.033 16.6314 30.0578C14.3313 31.8786 11.4803 32.8628 8.54678 32.8487C8.03106 32.8487 7.51535 32.8184 6.99963 32.7577C9.88157 34.6082 13.3095 35.6851 16.9802 35.6851C28.9327 35.6851 35.5004 25.7652 35.5004 17.1649C35.5004 16.8767 35.5004 16.6037 35.4853 16.3155C36.7594 15.4054 37.8515 14.2526 38.7312 12.933Z" fill="white"/>
</svg>
