<svg width="44" height="44" viewBox="0 0 44 44" fill="none" xmlns="http://www.w3.org/2000/svg">
<mask id="mask0_137_109" style="mask-type:alpha" maskUnits="userSpaceOnUse" x="0" y="0" width="44" height="44">
<rect x="0.462036" width="43.1092" height="43.1092" fill="#D9D9D9"/>
</mask>
<g mask="url(#mask0_137_109)">
</g>
<path d="M28.3174 15.2381C28.9556 15.2381 29.5775 15.2872 30.183 15.369C29.0702 10.5084 23.9641 6.82617 17.8271 6.82617C10.8717 6.82617 5.22559 11.5395 5.22559 17.3492C5.22559 20.7042 7.10762 23.6663 10.0371 25.5975L8.38414 28.9197L12.901 26.9722C13.8666 27.3158 14.8813 27.5941 15.9614 27.7413C15.8141 27.1031 15.7323 26.4485 15.7323 25.7611C15.7159 19.9677 21.362 15.2381 28.3174 15.2381ZM22.0166 11.5558C22.223 11.5558 22.4273 11.5965 22.6179 11.6754C22.8085 11.7544 22.9817 11.8701 23.1276 12.016C23.2735 12.1619 23.3892 12.3351 23.4681 12.5257C23.5471 12.7163 23.5877 12.9206 23.5877 13.1269C23.5877 13.3332 23.5471 13.5375 23.4681 13.7281C23.3892 13.9188 23.2735 14.0919 23.1276 14.2378C22.9817 14.3837 22.8085 14.4995 22.6179 14.5784C22.4273 14.6574 22.223 14.698 22.0166 14.698C21.6 14.698 21.2003 14.5325 20.9057 14.2378C20.6111 13.9432 20.4455 13.5436 20.4455 13.1269C20.4455 12.7102 20.6111 12.3106 20.9057 12.016C21.2003 11.7213 21.6 11.5558 22.0166 11.5558ZM13.6211 14.7144C13.2044 14.7144 12.8048 14.5488 12.5102 14.2542C12.2155 13.9596 12.05 13.56 12.05 13.1433C12.05 12.7266 12.2155 12.327 12.5102 12.0323C12.8048 11.7377 13.2044 11.5722 13.6211 11.5722C14.0378 11.5722 14.4374 11.7377 14.732 12.0323C15.0267 12.327 15.1922 12.7266 15.1922 13.1433C15.1922 13.56 15.0267 13.9596 14.732 14.2542C14.4374 14.5488 14.0378 14.7144 13.6211 14.7144Z" fill="white"/>
<path d="M38.8077 25.7595C38.8077 21.1117 34.1107 17.3477 28.3173 17.3477C22.5239 17.3477 17.827 21.1117 17.827 25.7595C17.827 30.4074 22.5239 34.1714 28.3173 34.1714C29.2665 34.1714 30.183 34.0405 31.0504 33.8441L36.7129 36.2826L34.749 32.3549C37.2038 30.8165 38.8077 28.4599 38.8077 25.7595ZM25.1588 25.2358C24.8481 25.2358 24.5443 25.1437 24.2859 24.9711C24.0276 24.7984 23.8262 24.5531 23.7073 24.266C23.5884 23.9789 23.5573 23.663 23.6179 23.3583C23.6785 23.0535 23.8281 22.7735 24.0479 22.5538C24.2676 22.3341 24.5475 22.1845 24.8523 22.1239C25.1571 22.0632 25.4729 22.0943 25.76 22.2133C26.0471 22.3322 26.2925 22.5335 26.4651 22.7919C26.6377 23.0503 26.7299 23.354 26.7299 23.6648C26.7463 24.5321 26.0262 25.2358 25.1588 25.2358ZM31.4595 25.2358C31.0428 25.2358 30.6432 25.0703 30.3486 24.7757C30.054 24.481 29.8884 24.0814 29.8884 23.6648C29.8884 23.2481 30.054 22.8485 30.3486 22.5538C30.6432 22.2592 31.0428 22.0937 31.4595 22.0937C31.8762 22.0937 32.2758 22.2592 32.5705 22.5538C32.8651 22.8485 33.0306 23.2481 33.0306 23.6648C33.0306 24.0814 32.8651 24.481 32.5705 24.7757C32.2758 25.0703 31.8762 25.2358 31.4595 25.2358Z" fill="white"/>
</svg>
