<svg width="44" height="44" viewBox="0 0 44 44" fill="none" xmlns="http://www.w3.org/2000/svg">
<mask id="mask0_137_93" style="mask-type:alpha" maskUnits="userSpaceOnUse" x="0" y="0" width="44" height="44">
<rect x="0.201416" width="43.1092" height="43.1092" fill="#D9D9D9"/>
</mask>
<g mask="url(#mask0_137_93)">
</g>
<path d="M38.9398 21.4485C38.9398 21.3641 38.9398 21.2682 38.936 21.1569C38.9321 20.8463 38.9244 20.4972 38.9168 20.1252C38.8861 19.055 38.8324 17.9887 38.748 16.9837C38.6329 15.5991 38.4642 14.4445 38.234 13.5777C37.9912 12.673 37.5151 11.848 36.8535 11.1849C36.1918 10.5219 35.3677 10.0442 34.4636 9.79951C33.3781 9.508 31.2531 9.32773 28.2613 9.21649C26.8382 9.16279 25.3155 9.12827 23.7927 9.10909C23.2596 9.10142 22.7647 9.09759 22.3198 9.09375H21.1921C20.7472 9.09759 20.2524 9.10142 19.7192 9.10909C18.1965 9.12827 16.6737 9.16279 15.2507 9.21649C12.2588 9.33156 10.13 9.51184 9.04838 9.79951C8.14393 10.0436 7.31952 10.5211 6.65777 11.1842C5.99602 11.8473 5.52017 12.6727 5.27791 13.5777C5.04393 14.4445 4.879 15.5991 4.76393 16.9837C4.67954 17.9887 4.62584 19.055 4.59516 20.1252C4.58365 20.4972 4.57981 20.8463 4.57598 21.1569C4.57598 21.2682 4.57214 21.3641 4.57214 21.4485V21.6633C4.57214 21.7476 4.57214 21.8435 4.57598 21.9548C4.57981 22.2655 4.58749 22.6145 4.59516 22.9866C4.62584 24.0567 4.67954 25.123 4.76393 26.128C4.879 27.5127 5.04777 28.6672 5.27791 29.5341C5.76887 31.3713 7.21109 32.8212 9.04838 33.3122C10.13 33.6037 12.2588 33.784 15.2507 33.8952C16.6737 33.9489 18.1965 33.9834 19.7192 34.0026C20.2524 34.0103 20.7472 34.0141 21.1921 34.018H22.3198C22.7647 34.0141 23.2596 34.0103 23.7927 34.0026C25.3155 33.9834 26.8382 33.9489 28.2613 33.8952C31.2531 33.7802 33.3819 33.5999 34.4636 33.3122C36.3008 32.8212 37.7431 31.3752 38.234 29.5341C38.468 28.6672 38.6329 27.5127 38.748 26.128C38.8324 25.123 38.8861 24.0567 38.9168 22.9866C38.9283 22.6145 38.9321 22.2655 38.936 21.9548C38.936 21.8435 38.9398 21.7476 38.9398 21.6633V21.4485ZM36.1781 21.6479C36.1781 21.7285 36.1781 21.8167 36.1743 21.9202C36.1704 22.2194 36.1628 22.5493 36.1551 22.906C36.1282 23.9263 36.0745 24.9466 35.994 25.894C35.8904 27.1291 35.7447 28.1417 35.5644 28.8206C35.3266 29.7067 34.6285 30.4086 33.7463 30.6426C32.9408 30.8574 30.9117 31.03 28.1539 31.1335C26.7577 31.1872 25.2541 31.2218 23.7544 31.2409C23.2289 31.2486 22.7417 31.2524 22.3045 31.2524H21.2075L19.7576 31.2409C18.2578 31.2218 16.7581 31.1872 15.3581 31.1335C12.6002 31.0261 10.5673 30.8574 9.76565 30.6426C8.88344 30.4048 8.18535 29.7067 7.94754 28.8206C7.76726 28.1417 7.62151 27.1291 7.51794 25.894C7.43739 24.9466 7.38753 23.9263 7.35684 22.906C7.34534 22.5493 7.3415 22.2156 7.33767 21.9202C7.33767 21.8167 7.33383 21.7246 7.33383 21.6479V21.4638C7.33383 21.3833 7.33383 21.295 7.33767 21.1915C7.3415 20.8923 7.34917 20.5624 7.35684 20.2057C7.38369 19.1854 7.43739 18.1651 7.51794 17.2177C7.62151 15.9826 7.76726 14.97 7.94754 14.2911C8.18535 13.405 8.88344 12.7031 9.76565 12.4691C10.5711 12.2543 12.6002 12.0817 15.3581 11.9782C16.7542 11.9245 18.2578 11.89 19.7576 11.8708C20.2831 11.8631 20.7702 11.8593 21.2075 11.8593H22.3045L23.7544 11.8708C25.2541 11.89 26.7539 11.9245 28.1539 11.9782C30.9117 12.0856 32.9446 12.2543 33.7463 12.4691C34.6285 12.707 35.3266 13.405 35.5644 14.2911C35.7447 14.97 35.8904 15.9826 35.994 17.2177C36.0745 18.1651 36.1244 19.1854 36.1551 20.2057C36.1666 20.5624 36.1704 20.8961 36.1743 21.1915C36.1743 21.295 36.1781 21.3871 36.1781 21.4638V21.6479ZM18.3422 26.6957L27.241 21.5175L18.3422 16.4161V26.6957Z" fill="white"/>
</svg>
