<svg width="44" height="44" viewBox="0 0 44 44" fill="none" xmlns="http://www.w3.org/2000/svg">
<mask id="mask0_137_87" style="mask-type:alpha" maskUnits="userSpaceOnUse" x="0" y="0" width="44" height="44">
<rect x="0.386353" width="43.1092" height="43.1092" fill="#D9D9D9"/>
</mask>
<g mask="url(#mask0_137_87)">
</g>
<path fill-rule="evenodd" clip-rule="evenodd" d="M21.9411 5.18945C17.4962 5.18945 16.9398 5.20909 15.1936 5.28765C13.4523 5.36784 12.2625 5.64442 11.2217 6.04864C10.1293 6.45917 9.13957 7.10313 8.3217 7.93559C7.48928 8.7535 6.84532 9.74317 6.43475 10.8356C6.03052 11.8764 5.75395 13.0662 5.67375 14.8075C5.59356 16.5537 5.57556 17.1101 5.57556 21.555C5.57556 25.9999 5.59356 26.5563 5.67375 28.3025C5.75395 30.0438 6.03052 31.2336 6.43475 32.2744C6.84537 33.3668 7.48932 34.3565 8.3217 35.1744C9.13964 36.0068 10.1293 36.6507 11.2217 37.0613C12.2625 37.4656 13.4523 37.7422 15.1936 37.8223C16.9398 37.9009 17.4962 37.9205 21.9411 37.9205C26.386 37.9205 26.9424 37.9009 28.6886 37.8223C30.4299 37.7422 31.6197 37.4656 32.6605 37.0613C33.7529 36.6508 34.7426 36.0068 35.5605 35.1744C36.3929 34.3565 37.0369 33.3668 37.4475 32.2744C37.8517 31.2336 38.1283 30.0438 38.2085 28.3025C38.287 26.5563 38.3066 25.9999 38.3066 21.555C38.3066 17.1101 38.287 16.5537 38.2085 14.8075C38.1283 13.0662 37.8517 11.8764 37.4475 10.8356C37.0369 9.74317 36.3929 8.7535 35.5605 7.93559C34.7426 7.10313 33.753 6.45917 32.6605 6.04864C31.6197 5.64442 30.4299 5.36784 28.6886 5.28765C26.9424 5.20909 26.386 5.18945 21.9411 5.18945ZM21.9411 8.13852C26.3107 8.13852 26.8279 8.15489 28.5528 8.23344C30.1501 8.30709 31.0158 8.57221 31.5935 8.79642C32.3561 9.09427 32.9027 9.4494 33.4755 10.0206C34.0483 10.5934 34.4018 11.14 34.6997 11.9026C34.9223 12.4803 35.1906 13.346 35.2627 14.9417C35.3412 16.6682 35.3576 17.1838 35.3576 21.555C35.3576 25.9246 35.3412 26.4417 35.2627 28.1667C35.189 29.764 34.9223 30.6297 34.6997 31.2074C34.4373 31.9183 34.019 32.5614 33.4755 33.0894C32.9027 33.6622 32.3561 34.0157 31.5935 34.3136C31.0158 34.5361 30.1501 34.8045 28.5544 34.8765C26.8295 34.9551 26.3123 34.9715 21.9411 34.9715C17.5715 34.9715 17.0527 34.9551 15.3294 34.8765C13.7321 34.8029 12.8664 34.5361 12.2887 34.3136C11.5778 34.0513 10.9347 33.633 10.4067 33.0894C9.8631 32.5615 9.4448 31.9183 9.18253 31.2074C8.95832 30.6297 8.69156 29.764 8.61955 28.1683C8.541 26.4417 8.52463 25.9262 8.52463 21.555C8.52463 17.1854 8.541 16.6682 8.61955 14.9433C8.6932 13.346 8.95832 12.4803 9.18253 11.9026C9.48038 11.14 9.83551 10.5934 10.4067 10.0206C10.9795 9.44777 11.5261 9.09427 12.2887 8.79642C12.8664 8.57221 13.7321 8.30545 15.3278 8.23344C17.0544 8.15489 17.5699 8.13852 21.9411 8.13852ZM21.9411 27.0096C20.4944 27.0096 19.107 26.4349 18.0841 25.412C17.0612 24.3891 16.4865 23.0017 16.4865 21.555C16.4865 20.1083 17.0612 18.7209 18.0841 17.698C19.107 16.675 20.4944 16.1004 21.9411 16.1004C23.3878 16.1004 24.7752 16.675 25.7981 17.698C26.8211 18.7209 27.3957 20.1083 27.3957 21.555C27.3957 23.0017 26.8211 24.3891 25.7981 25.412C24.7752 26.4349 23.3878 27.0096 21.9411 27.0096ZM21.9411 13.1513C20.8375 13.1513 19.7447 13.3687 18.7251 13.791C17.7056 14.2133 16.7791 14.8323 15.9988 15.6127C15.2184 16.393 14.5994 17.3195 14.1771 18.339C13.7548 19.3586 13.5374 20.4514 13.5374 21.555C13.5374 22.6586 13.7548 23.7514 14.1771 24.771C14.5994 25.7905 15.2184 26.717 15.9988 27.4973C16.7791 28.2777 17.7056 28.8967 18.7251 29.319C19.7447 29.7413 20.8375 29.9587 21.9411 29.9587C24.1699 29.9587 26.3074 29.0733 27.8834 27.4973C29.4594 25.9213 30.3448 23.7838 30.3448 21.555C30.3448 19.3262 29.4594 17.1887 27.8834 15.6127C26.3074 14.0367 24.1699 13.1513 21.9411 13.1513ZM32.6409 12.8191C32.6409 13.077 32.5901 13.3323 32.4914 13.5706C32.3927 13.8089 32.2481 14.0254 32.0657 14.2077C31.8833 14.3901 31.6668 14.5348 31.4286 14.6334C31.1903 14.7321 30.9349 14.7829 30.677 14.7829C30.4191 14.7829 30.1638 14.7321 29.9255 14.6334C29.6872 14.5348 29.4707 14.3901 29.2884 14.2077C29.106 14.0254 28.9614 13.8089 28.8627 13.5706C28.764 13.3323 28.7132 13.077 28.7132 12.8191C28.7132 12.2982 28.9201 11.7987 29.2884 11.4304C29.6567 11.0621 30.1562 10.8552 30.677 10.8552C31.1979 10.8552 31.6974 11.0621 32.0657 11.4304C32.434 11.7987 32.6409 12.2982 32.6409 12.8191Z" fill="white"/>
</svg>
